<svg class="fill-black"
                        version="1.1"
                        xmlns="http://www.w3.org/2000/svg"
                        xmlns:xlink="http://www.w3.org/1999/xlink"
                        width="20px"
                        height="20px"
                        viewBox="0,0,256,256"
                    >
                            <g transform="scale(5.33333,5.33333)">
                                <path
                                    d="M24,4c-6.53585,0 -12.34885,3.14916 -16,8.01172v-3.51172c0.00582,-0.40562 -0.15288,-0.7963 -0.43991,-1.08296c-0.28703,-0.28666 -0.67792,-0.44486 -1.08353,-0.43852c-0.82766,0.01293 -1.48844,0.69381 -1.47656,1.52148v7c0.00008,0.82839 0.67161,1.49992 1.5,1.5h7c0.54095,0.00765 1.04412,-0.27656 1.31683,-0.74381c0.27271,-0.46725 0.27271,-1.04514 0,-1.51238c-0.27271,-0.46725 -0.77588,-0.75146 -1.31683,-0.74381h-3.25c3.08908,-4.2418 8.08918,-7 13.75,-7c9.40629,0 17,7.59371 17,17c0,9.40629 -7.59371,17 -17,17c-9.40629,0 -17,-7.59371 -17,-17c0.00765,-0.54095 -0.27656,-1.04412 -0.74381,-1.31683c-0.46725,-0.27271 -1.04514,-0.27271 -1.51238,0c-0.46725,0.27271 -0.75146,0.77588 -0.74381,1.31683c0,11.02771 8.97229,20 20,20c11.02771,0 20,-8.97229 20,-20c0,-11.02771 -8.97229,-20 -20,-20zM23.47656,12.97852c-0.82766,0.01293 -1.48843,0.69381 -1.47656,1.52148v12c0.00008,0.82839 0.67161,1.49992 1.5,1.5h8c0.54095,0.00765 1.04412,-0.27656 1.31683,-0.74381c0.27271,-0.46725 0.27271,-1.04514 0,-1.51238c-0.27271,-0.46725 -0.77588,-0.75146 -1.31683,-0.74381h-6.5v-10.5c0.00582,-0.40562 -0.15288,-0.7963 -0.43991,-1.08296c-0.28703,-0.28666 -0.67792,-0.44486 -1.08353,-0.43852z"
                                ></path>
                            </g>
                    </svg>