 <svg version="1.1" xmlns="http://www.w3.org/2000/svg" width="25px" height="25px" viewBox="0,0,256,256">
                                    <g
                                        fill="white"
                                        fill-rule="nonzero"
                                        stroke="none"
                                        stroke-width="1"
                                        stroke-linecap="butt"
                                        stroke-linejoin="miter"
                                        stroke-miterlimit="10"
                                        stroke-dasharray=""
                                        stroke-dashoffset="0"
                                        font-family="none"
                                        font-weight="none"
                                        font-size="none"
                                        text-anchor="none"
                                        style="mix-blend-mode: normal"
                                    >
                                        <g transform="scale(5.33333,5.33333)">
                                            <path
                                                d="M24,4c-9.37075,0 -17,7.62925 -17,17c0,4.20679 1.54331,8.06483 4.07813,11.03125l0.00781,0.00781l0.00586,0.00781c0,0 7.23193,8.25215 9.80664,10.70898c1.72413,1.6438 4.47704,1.6438 6.20117,0c2.93478,-2.7992 9.81055,-10.71289 9.81055,-10.71289l0.00391,-0.00586l0.00586,-0.00586c2.53707,-2.96645 4.08008,-6.82446 4.08008,-11.03125c0,-9.37075 -7.62925,-17 -17,-17zM24,7c7.74925,0 14,6.25075 14,14c0,3.47521 -1.26646,6.63259 -3.36133,9.08203c-0.01364,0.0156 -7.04864,8.06147 -9.60937,10.50391c-0.59387,0.5662 -1.46668,0.5662 -2.06055,0c-2.14017,-2.04219 -9.58765,-10.4793 -9.60937,-10.50391l-0.00195,-0.00195c-2.0921,-2.44925 -3.35742,-5.60583 -3.35742,-9.08008c0,-7.74925 6.25075,-14 14,-14zM24,15c-1.875,0 -3.47118,0.75713 -4.49609,1.91016c-1.02491,1.15302 -1.50391,2.63151 -1.50391,4.08984c0,1.45833 0.479,2.93682 1.50391,4.08984c1.02491,1.15302 2.62109,1.91016 4.49609,1.91016c1.875,0 3.47118,-0.75713 4.49609,-1.91016c1.02491,-1.15302 1.50391,-2.63151 1.50391,-4.08984c0,-1.45833 -0.479,-2.93682 -1.50391,-4.08984c-1.02491,-1.15302 -2.62109,-1.91016 -4.49609,-1.91016zM24,18c1.125,0 1.77882,0.36787 2.25391,0.90234c0.47509,0.53448 0.74609,1.30599 0.74609,2.09766c0,0.79167 -0.271,1.56318 -0.74609,2.09766c-0.47509,0.53448 -1.12891,0.90234 -2.25391,0.90234c-1.125,0 -1.77882,-0.36787 -2.25391,-0.90234c-0.47509,-0.53448 -0.74609,-1.30599 -0.74609,-2.09766c0,-0.79167 0.271,-1.56318 0.74609,-2.09766c0.47509,-0.53448 1.12891,-0.90234 2.25391,-0.90234z"
                                            ></path>
                                        </g>
                                    </g>
                                </svg>