<svg version="1.1" xmlns="http://www.w3.org/2000/svg" xmlns:xlink="http://www.w3.org/1999/xlink" width="25px" height="25px" viewBox="0,0,256,256"><g  fill="white" fill-rule="nonzero" stroke="none" stroke-width="1" stroke-linecap="butt" stroke-linejoin="miter" stroke-miterlimit="10" stroke-dasharray="" stroke-dashoffset="0" font-family="none" font-weight="none" font-size="none" text-anchor="none" style="mix-blend-mode: normal"><g transform="scale(5.33333,5.33333)"><path d="M30.5,7c-0.48915,0.00002 -0.94757,0.23853 -1.22834,0.63907c-0.28077,0.40054 -0.34862,0.91282 -0.18182,1.37265l2.17773,5.98828h-12.44922l-0.94727,-2h1.62891c0.54095,0.00765 1.04412,-0.27656 1.31683,-0.74381c0.27271,-0.46725 0.27271,-1.04514 0,-1.51238c-0.27271,-0.46725 -0.77588,-0.75146 -1.31683,-0.74381h-3.77734c-0.15465,-0.02436 -0.31215,-0.02436 -0.4668,0h-1.75586c-0.54095,-0.00765 -1.04412,0.27656 -1.31683,0.74381c-0.27271,0.46725 -0.27271,1.04514 0,1.51238c0.27271,0.46725 0.77588,0.75146 1.31683,0.74381h1.05078l1.45898,3.08203l-3.66602,6.41797c-0.89073,-0.31767 -1.84528,-0.5 -2.84375,-0.5c-4.687,0 -8.5,3.813 -8.5,8.5c0,4.687 3.813,8.5 8.5,8.5c3.438,0 6.39933,-2.056 7.73633,-5h-3.49805c-1.01,1.221 -2.53428,2 -4.23828,2c-3.032,0 -5.5,-2.467 -5.5,-5.5c0,-3.033 2.468,-5.5 5.5,-5.5c0.45572,0 0.89654,0.061 1.32031,0.16602l-2.62305,4.58984c-0.26519,0.46432 -0.26318,1.03469 0.00527,1.49713c0.26845,0.46244 0.76275,0.74703 1.29746,0.74701h14.77734c0.69231,0.10759 1.36689,-0.27835 1.625,-0.92969l6.84961,-11.98828l1.48438,4.08203c-2.52573,1.47745 -4.23633,4.21276 -4.23633,7.33594c0,4.67666 3.82334,8.5 8.5,8.5c4.67666,0 8.5,-3.82334 8.5,-8.5c0,-4.67666 -3.82334,-8.5 -8.5,-8.5c-0.49376,0 -0.97407,0.05302 -1.44531,0.13477l-4.41211,-12.13477h1.85742c0.54095,0.00765 1.04412,-0.27656 1.31683,-0.74381c0.27271,-0.46725 0.27271,-1.04514 0,-1.51238c-0.27271,-0.46725 -0.77588,-0.75146 -1.31683,-0.74381zM20.23828,18h9.67578l-5.28906,9.25781zM17.57617,19.38867l4.55273,9.61133h-4.26953c-0.35818,-2.00001 -1.4111,-3.76115 -2.9082,-5.01562zM38.5,25c3.05534,0 5.5,2.44466 5.5,5.5c0,3.05534 -2.44466,5.5 -5.5,5.5c-3.05534,0 -5.5,-2.44466 -5.5,-5.5c0,-1.84796 0.89843,-3.46751 2.28125,-4.46289l1.80859,4.97461c0.18095,0.50634 0.61905,0.87711 1.14833,0.97185c0.52929,0.09474 1.0688,-0.10104 1.41415,-0.51317c0.34535,-0.41213 0.44372,-0.97758 0.25783,-1.48212l-1.80664,-4.96875c0.13163,-0.00927 0.26235,-0.01953 0.39648,-0.01953zM13.42578,26.65625c0.63391,0.64723 1.10706,1.44875 1.36133,2.34375h-2.70117z"></path></g></g></svg>