<svg width="0" height="0" class="hidden">
  <symbol version="1.1" xmlns="http://www.w3.org/2000/svg" xmlns:xlink="http://www.w3.org/1999/xlink" viewBox="0,0,256,256" id="bike">
    <g fill-rule="nonzero" stroke="none" stroke-width="1" stroke-linecap="butt" stroke-linejoin="miter" stroke-miterlimit="10" stroke-dasharray="" stroke-dashoffset="0" font-family="none" font-weight="none" font-size="none" text-anchor="none">
      <g transform="scale(5.33333,5.33333)">
        <path d="M30.5,7c-0.48915,0.00002 -0.94757,0.23853 -1.22834,0.63907c-0.28077,0.40054 -0.34862,0.91282 -0.18182,1.37265l2.17773,5.98828h-12.44922l-0.94727,-2h1.62891c0.54095,0.00765 1.04412,-0.27656 1.31683,-0.74381c0.27271,-0.46725 0.27271,-1.04514 0,-1.51238c-0.27271,-0.46725 -0.77588,-0.75146 -1.31683,-0.74381h-3.77734c-0.15465,-0.02436 -0.31215,-0.02436 -0.4668,0h-1.75586c-0.54095,-0.00765 -1.04412,0.27656 -1.31683,0.74381c-0.27271,0.46725 -0.27271,1.04514 0,1.51238c0.27271,0.46725 0.77588,0.75146 1.31683,0.74381h1.05078l1.45898,3.08203l-3.66602,6.41797c-0.89073,-0.31767 -1.84528,-0.5 -2.84375,-0.5c-4.687,0 -8.5,3.813 -8.5,8.5c0,4.687 3.813,8.5 8.5,8.5c3.438,0 6.39933,-2.056 7.73633,-5h-3.49805c-1.01,1.221 -2.53428,2 -4.23828,2c-3.032,0 -5.5,-2.467 -5.5,-5.5c0,-3.033 2.468,-5.5 5.5,-5.5c0.45572,0 0.89654,0.061 1.32031,0.16602l-2.62305,4.58984c-0.26519,0.46432 -0.26318,1.03469 0.00527,1.49713c0.26845,0.46244 0.76275,0.74703 1.29746,0.74701h14.77734c0.69231,0.10759 1.36689,-0.27835 1.625,-0.92969l6.84961,-11.98828l1.48438,4.08203c-2.52573,1.47745 -4.23633,4.21276 -4.23633,7.33594c0,4.67666 3.82334,8.5 8.5,8.5c4.67666,0 8.5,-3.82334 8.5,-8.5c0,-4.67666 -3.82334,-8.5 -8.5,-8.5c-0.49376,0 -0.97407,0.05302 -1.44531,0.13477l-4.41211,-12.13477h1.85742c0.54095,0.00765 1.04412,-0.27656 1.31683,-0.74381c0.27271,-0.46725 0.27271,-1.04514 0,-1.51238c-0.27271,-0.46725 -0.77588,-0.75146 -1.31683,-0.74381zM20.23828,18h9.67578l-5.28906,9.25781zM17.57617,19.38867l4.55273,9.61133h-4.26953c-0.35818,-2.00001 -1.4111,-3.76115 -2.9082,-5.01562zM38.5,25c3.05534,0 5.5,2.44466 5.5,5.5c0,3.05534 -2.44466,5.5 -5.5,5.5c-3.05534,0 -5.5,-2.44466 -5.5,-5.5c0,-1.84796 0.89843,-3.46751 2.28125,-4.46289l1.80859,4.97461c0.18095,0.50634 0.61905,0.87711 1.14833,0.97185c0.52929,0.09474 1.0688,-0.10104 1.41415,-0.51317c0.34535,-0.41213 0.44372,-0.97758 0.25783,-1.48212l-1.80664,-4.96875c0.13163,-0.00927 0.26235,-0.01953 0.39648,-0.01953zM13.42578,26.65625c0.63391,0.64723 1.10706,1.44875 1.36133,2.34375h-2.70117z"></path>
      </g>
    </g>
  </symbol>
   <symbol version="1.1" xmlns="http://www.w3.org/2000/svg" xmlns:xlink="http://www.w3.org/1999/xlink" viewBox="0,0,256,256" id="walk">
    <g fill-rule="nonzero" stroke="none" stroke-width="1" stroke-linecap="butt" stroke-linejoin="miter" stroke-miterlimit="10" stroke-dasharray="" stroke-dashoffset="0" font-family="none" font-weight="none" font-size="none" text-anchor="none">
      <g transform="scale(5.33333,5.33333)">
        <path d="M26.99805,4c-2.208,0 -3.99805,1.79205 -3.99805,3.99805c0,2.21 1.79005,4.00195 3.99805,4.00195c2.213,0 4.00195,-1.79195 4.00195,-4.00195c0,-2.206 -1.78895,-3.99805 -4.00195,-3.99805zM23.99805,14c-0.70859,0 -1.36426,0.19987 -1.94141,0.52344c-0.12749,0.05032 -0.25697,0.08471 -0.38281,0.14648c-0.00653,0.00321 -0.01304,0.00646 -0.01953,0.00977l-6.83594,3.48437c-0.18984,0.09651 -0.35696,0.23233 -0.49023,0.39844l-4,5c-0.51777,0.64721 -0.41283,1.59161 0.23438,2.10938c0.64721,0.51777 1.59161,0.41283 2.10938,-0.23437l3.76367,-4.70508l2.88281,-0.77539l-1.21289,6.16016c-0.01244,0.05506 -0.02306,0.11012 -0.0332,0.16602l-0.0293,0.15234l0.01367,0.00391c-0.02606,0.18427 -0.05664,0.36719 -0.05664,0.55859c0,1.29481 0.62517,2.4345 1.57813,3.16602l-0.00391,0.00586l0.13477,0.10156c0.02531,0.01778 0.04849,0.03749 0.07422,0.05469l6.2168,4.67383l4.16992,8.22266l0.00391,-0.01953c0.36881,0.70272 1.22112,0.99661 1.94466,0.67055c0.72354,-0.32606 1.06795,-1.15925 0.7858,-1.90102l-3,-8c-0.05803,-0.15231 -0.14049,-0.29414 -0.24414,-0.41992l-0.00391,-0.00586l-3.77148,-5.12109l1.38086,-7.06445l1.67188,2.46484l0.28906,0.4668c0.14662,0.23518 0.35551,0.42514 0.60352,0.54883l6,3c0.48118,0.25449 1.06246,0.22837 1.51887,-0.06826c0.45641,-0.29663 0.71632,-0.81722 0.67915,-1.36028c-0.03717,-0.54306 -0.3656,-1.02338 -0.85817,-1.25505l-5.61914,-2.81055l-3.76953,-6.05859l-0.00195,-0.00195c-0.23412,-0.38424 -0.5293,-0.72002 -0.86523,-1.00977c-0.73,-0.78101 -1.76046,-1.27734 -2.91602,-1.27734zM18.46289,31.9082l-0.89844,4.29297l-4.05859,5.17188l-0.06641,0.06641c-0.39185,0.37623 -0.54969,0.9349 -0.41265,1.46055c0.13704,0.52565 0.54754,0.93616 1.07319,1.07319c0.52565,0.13704 1.08432,-0.0208 1.46055,-0.41265l5,-5c0.22652,-0.2218 0.37694,-0.50966 0.42969,-0.82227l1.32031,-2.98633z"></path>
      </g>
    </g>
  </symbol>
 <symbol version="1.1" xmlns="http://www.w3.org/2000/svg" xmlns:xlink="http://www.w3.org/1999/xlink" viewBox="0,0,256,256" id="bus">
    <g fill-rule="nonzero" stroke="none" stroke-width="1" stroke-linecap="butt" stroke-linejoin="miter" stroke-miterlimit="10" stroke-dasharray="" stroke-dashoffset="0" font-family="none" font-weight="none" font-size="none" text-anchor="none">
      <g transform="scale(5.33333,5.33333)">
        <path d="M14.5,6c-4.1245,0 -7.5,3.3755 -7.5,7.5v2.56641c-0.16787,-0.06018 -0.34512,-0.08994 -0.52344,-0.08789c-0.82766,0.01293 -1.48844,0.69381 -1.47656,1.52148v5c-0.00628,0.49034 0.22749,0.95279 0.62606,1.23848c0.39856,0.28569 0.9116,0.35854 1.37394,0.19511v11.06641v1.5v4.5c0,1.105 0.895,2 2,2h1c1.105,0 2,-0.895 2,-2h24c0,1.105 0.895,2 2,2h1c1.105,0 2,-0.895 2,-2v-4.5v-1.5v-11.06641c0.46234,0.16343 0.97538,0.09058 1.37394,-0.19511c0.39856,-0.28569 0.63234,-0.74814 0.62606,-1.23848v-5c0.00582,-0.40562 -0.15288,-0.7963 -0.43991,-1.08296c-0.28703,-0.28666 -0.67792,-0.44486 -1.08353,-0.43852c-0.16257,0.00328 -0.32352,0.03296 -0.47656,0.08789v-2.56641c0,-4.1245 -3.3755,-7.5 -7.5,-7.5zM14.5,9h19c2.5035,0 4.5,1.9965 4.5,4.5v11.5h-28v-11.5c0,-2.5035 1.9965,-4.5 4.5,-4.5zM21.5,11c-0.54095,-0.00765 -1.04412,0.27656 -1.31683,0.74381c-0.27271,0.46725 -0.27271,1.04514 0,1.51238c0.27271,0.46725 0.77588,0.75146 1.31683,0.74381h5c0.54095,0.00765 1.04412,-0.27656 1.31683,-0.74381c0.27271,-0.46725 0.27271,-1.04514 0,-1.51238c-0.27271,-0.46725 -0.77588,-0.75146 -1.31683,-0.74381zM15,31c1.105,0 2,0.895 2,2c0,1.105 -0.895,2 -2,2c-1.105,0 -2,-0.895 -2,-2c0,-1.105 0.895,-2 2,-2zM33,31c1.105,0 2,0.895 2,2c0,1.105 -0.895,2 -2,2c-1.105,0 -2,-0.895 -2,-2c0,-1.105 0.895,-2 2,-2z"></path>
      </g>
    </g>
  </symbol>
    <symbol version="1.1" xmlns="http://www.w3.org/2000/svg" viewBox="0,0,256,256" id="pin">
    <g fill-rule="nonzero" stroke="none" stroke-width="1" stroke-linecap="butt" stroke-linejoin="miter" stroke-miterlimit="10" stroke-dasharray="" stroke-dashoffset="0" font-family="none" font-weight="none" font-size="none" text-anchor="none">
      <g transform="scale(5.33333,5.33333)">
        <path d="M24,4c-9.37075,0 -17,7.62925 -17,17c0,4.20679 1.54331,8.06483 4.07813,11.03125l0.00781,0.00781l0.00586,0.00781c0,0 7.23193,8.25215 9.80664,10.70898c1.72413,1.6438 4.47704,1.6438 6.20117,0c2.93478,-2.7992 9.81055,-10.71289 9.81055,-10.71289l0.00391,-0.00586l0.00586,-0.00586c2.53707,-2.96645 4.08008,-6.82446 4.08008,-11.03125c0,-9.37075 -7.62925,-17 -17,-17zM24,7c7.74925,0 14,6.25075 14,14c0,3.47521 -1.26646,6.63259 -3.36133,9.08203c-0.01364,0.0156 -7.04864,8.06147 -9.60937,10.50391c-0.59387,0.5662 -1.46668,0.5662 -2.06055,0c-2.14017,-2.04219 -9.58765,-10.4793 -9.60937,-10.50391l-0.00195,-0.00195c-2.0921,-2.44925 -3.35742,-5.60583 -3.35742,-9.08008c0,-7.74925 6.25075,-14 14,-14zM24,15c-1.875,0 -3.47118,0.75713 -4.49609,1.91016c-1.02491,1.15302 -1.50391,2.63151 -1.50391,4.08984c0,1.45833 0.479,2.93682 1.50391,4.08984c1.02491,1.15302 2.62109,1.91016 4.49609,1.91016c1.875,0 3.47118,-0.75713 4.49609,-1.91016c1.02491,-1.15302 1.50391,-2.63151 1.50391,-4.08984c0,-1.45833 -0.479,-2.93682 -1.50391,-4.08984c-1.02491,-1.15302 -2.62109,-1.91016 -4.49609,-1.91016zM24,18c1.125,0 1.77882,0.36787 2.25391,0.90234c0.47509,0.53448 0.74609,1.30599 0.74609,2.09766c0,0.79167 -0.271,1.56318 -0.74609,2.09766c-0.47509,0.53448 -1.12891,0.90234 -2.25391,0.90234c-1.125,0 -1.77882,-0.36787 -2.25391,-0.90234c-0.47509,-0.53448 -0.74609,-1.30599 -0.74609,-2.09766c0,-0.79167 0.271,-1.56318 0.74609,-2.09766c0.47509,-0.53448 1.12891,-0.90234 2.25391,-0.90234z"></path>
      </g>
    </g>
  </symbol>
  <symbol version="1.1" xmlns="http://www.w3.org/2000/svg" xmlns:xlink="http://www.w3.org/1999/xlink" viewBox="0,0,256,256" id="settings">
    <g fill-rule="nonzero" stroke="none" stroke-width="1" stroke-linecap="butt" stroke-linejoin="miter" stroke-miterlimit="10" stroke-dasharray="" stroke-dashoffset="0" font-family="none" font-weight="none" font-size="none" text-anchor="none">
      <g transform="scale(5.33333,5.33333)">
        <path d="M32.5,5c-2.4675,0 -4.5,2.0325 -4.5,4.5v0.5h-22.5c-0.54095,-0.00765 -1.04412,0.27656 -1.31683,0.74381c-0.27271,0.46725 -0.27271,1.04514 0,1.51238c0.27271,0.46725 0.77588,0.75146 1.31683,0.74381h22.5v0.5c0,2.4675 2.0325,4.5 4.5,4.5c2.4675,0 4.5,-2.0325 4.5,-4.5v-0.5h5.5c0.54095,0.00765 1.04412,-0.27656 1.31683,-0.74381c0.27271,-0.46725 0.27271,-1.04514 0,-1.51238c-0.27271,-0.46725 -0.77588,-0.75146 -1.31683,-0.74381h-5.5v-0.5c0,-2.4675 -2.0325,-4.5 -4.5,-4.5zM32.5,8c0.8465,0 1.5,0.6535 1.5,1.5v1.75391c-0.02645,0.16103 -0.02645,0.3253 0,0.48633v1.75977c0,0.8465 -0.6535,1.5 -1.5,1.5c-0.8465,0 -1.5,-0.6535 -1.5,-1.5v-1.75391c0.02645,-0.16103 0.02645,-0.3253 0,-0.48633v-1.75977c0,-0.8465 0.6535,-1.5 1.5,-1.5zM15.5,17.5c-2.4675,0 -4.5,2.0325 -4.5,4.5v0.5h-5.5c-0.54095,-0.00765 -1.04412,0.27656 -1.31683,0.74381c-0.27271,0.46725 -0.27271,1.04514 0,1.51238c0.27271,0.46725 0.77588,0.75146 1.31683,0.74381h5.5v0.5c0,2.4675 2.0325,4.5 4.5,4.5c2.4675,0 4.5,-2.0325 4.5,-4.5v-0.5h22.5c0.54095,0.00765 1.04412,-0.27656 1.31683,-0.74381c0.27271,-0.46725 0.27271,-1.04514 0,-1.51238c-0.27271,-0.46725 -0.77588,-0.75146 -1.31683,-0.74381h-22.5v-0.5c0,-2.4675 -2.0325,-4.5 -4.5,-4.5zM15.5,20.5c0.8465,0 1.5,0.6535 1.5,1.5v1.75391c-0.02645,0.16103 -0.02645,0.3253 0,0.48633v1.75977c0,0.8465 -0.6535,1.5 -1.5,1.5c-0.8465,0 -1.5,-0.6535 -1.5,-1.5v-1.75391c0.02645,-0.16103 0.02645,-0.3253 0,-0.48633v-1.75977c0,-0.8465 0.6535,-1.5 1.5,-1.5zM30.5,30c-2.4675,0 -4.5,2.0325 -4.5,4.5v0.5h-20.5c-0.54095,-0.00765 -1.04412,0.27656 -1.31683,0.74381c-0.27271,0.46725 -0.27271,1.04514 0,1.51238c0.27271,0.46725 0.77588,0.75146 1.31683,0.74381h20.5v0.5c0,2.4675 2.0325,4.5 4.5,4.5c2.4675,0 4.5,-2.0325 4.5,-4.5v-0.5h7.5c0.54095,0.00765 1.04412,-0.27656 1.31683,-0.74381c0.27271,-0.46725 0.27271,-1.04514 0,-1.51238c-0.27271,-0.46725 -0.77588,-0.75146 -1.31683,-0.74381h-7.5v-0.5c0,-2.4675 -2.0325,-4.5 -4.5,-4.5zM30.5,33c0.8465,0 1.5,0.6535 1.5,1.5v1.75391c-0.02645,0.16103 -0.02645,0.3253 0,0.48633v1.75977c0,0.8465 -0.6535,1.5 -1.5,1.5c-0.8465,0 -1.5,-0.6535 -1.5,-1.5v-1.75391c0.02645,-0.16103 0.02645,-0.3253 0,-0.48633v-1.75977c0,-0.8465 0.6535,-1.5 1.5,-1.5z"></path>
      </g>
    </g>
  </symbol>
    <symbol version="1.1" xmlns="http://www.w3.org/2000/svg" xmlns:xlink="http://www.w3.org/1999/xlink" viewBox="0,0,256,256" id="history">
    <g transform="scale(5.33333,5.33333)">
      <path d="M24,4c-6.53585,0 -12.34885,3.14916 -16,8.01172v-3.51172c0.00582,-0.40562 -0.15288,-0.7963 -0.43991,-1.08296c-0.28703,-0.28666 -0.67792,-0.44486 -1.08353,-0.43852c-0.82766,0.01293 -1.48844,0.69381 -1.47656,1.52148v7c0.00008,0.82839 0.67161,1.49992 1.5,1.5h7c0.54095,0.00765 1.04412,-0.27656 1.31683,-0.74381c0.27271,-0.46725 0.27271,-1.04514 0,-1.51238c-0.27271,-0.46725 -0.77588,-0.75146 -1.31683,-0.74381h-3.25c3.08908,-4.2418 8.08918,-7 13.75,-7c9.40629,0 17,7.59371 17,17c0,9.40629 -7.59371,17 -17,17c-9.40629,0 -17,-7.59371 -17,-17c0.00765,-0.54095 -0.27656,-1.04412 -0.74381,-1.31683c-0.46725,-0.27271 -1.04514,-0.27271 -1.51238,0c-0.46725,0.27271 -0.75146,0.77588 -0.74381,1.31683c0,11.02771 8.97229,20 20,20c11.02771,0 20,-8.97229 20,-20c0,-11.02771 -8.97229,-20 -20,-20zM23.47656,12.97852c-0.82766,0.01293 -1.48843,0.69381 -1.47656,1.52148v12c0.00008,0.82839 0.67161,1.49992 1.5,1.5h8c0.54095,0.00765 1.04412,-0.27656 1.31683,-0.74381c0.27271,-0.46725 0.27271,-1.04514 0,-1.51238c-0.27271,-0.46725 -0.77588,-0.75146 -1.31683,-0.74381h-6.5v-10.5c0.00582,-0.40562 -0.15288,-0.7963 -0.43991,-1.08296c-0.28703,-0.28666 -0.67792,-0.44486 -1.08353,-0.43852z"></path>
    </g>
  </symbol>

    <symbol version="1.1" xmlns="http://www.w3.org/2000/svg" xmlns:xlink="http://www.w3.org/1999/xlink" viewBox="0,0,256,256" id="clock">
    <g fill-rule="nonzero" stroke="none" stroke-width="1" stroke-linecap="butt" stroke-linejoin="miter" stroke-miterlimit="10" stroke-dasharray="" stroke-dashoffset="0" font-family="none" font-weight="none" font-size="none" text-anchor="none">
      <g transform="scale(5.33333,5.33333)">
        <path d="M24,4c-11.02793,0 -20,8.97207 -20,20c0,11.02793 8.97207,20 20,20c11.02793,0 20,-8.97207 20,-20c0,-11.02793 -8.97207,-20 -20,-20zM24,7c9.40662,0 17,7.59339 17,17c0,9.40661 -7.59338,17 -17,17c-9.40661,0 -17,-7.59339 -17,-17c0,-9.40661 7.59339,-17 17,-17zM23.47656,11.97852c-0.82766,0.01293 -1.48843,0.69381 -1.47656,1.52148v12c0.00008,0.82839 0.67161,1.49992 1.5,1.5h8c0.54095,0.00765 1.04412,-0.27656 1.31683,-0.74381c0.27271,-0.46725 0.27271,-1.04514 0,-1.51238c-0.27271,-0.46725 -0.77588,-0.75146 -1.31683,-0.74381h-6.5v-10.5c0.00582,-0.40562 -0.15288,-0.7963 -0.43991,-1.08296c-0.28703,-0.28666 -0.67792,-0.44486 -1.08353,-0.43852z"></path>
      </g>
    </g>
  </symbol>
</svg>